# xmcd
#
# Track frame offsets: 
#        150
#        10203
#        24355
#        43740
#        63598
#        77025
#        90228
#        112053
#        128873
#        150793
#        172730
#        214128
#
# Disc length: 3014 seconds
#
# Revision: 2
# Processed by: cddbd v1.5.1PL0 Copyright (c) Steve Scherf et al.
# Submitted via: ExactAudioCopy v0.95a5
#
DISCID=8a0bc40c
DTITLE=Adrian Legg - Mrs. Crowe's Blue Waltz
DYEAR=1993
DGENRE=Instrumental
TTITLE0=Kinvarra's Child
TTITLE1=Frank the Part-Time Clown
TTITLE2=Mrs. Crowe's Blue Waltz
TTITLE3=Gebrauchmusik II
TTITLE4=Brooklyn Blossom
TTITLE5=Sour Grapes
TTITLE6=Norah Handley's Waltz
TTITLE7=Kiss-Curl
TTITLE8=Lunch-Time at Rosie's 
TTITLE9=Paddy Goes to Nashville
TTITLE10=Green Ballet II
TTITLE11=Last Track
EXTD=
EXTT0=
EXTT1=
EXTT2=
EXTT3=
EXTT4=
EXTT5=
EXTT6=
EXTT7=
EXTT8=
EXTT9=
EXTT10=
EXTT11=
PLAYORDER=
